<?xml version="1.0" standalone="no"?>
<!DOCTYPE svg PUBLIC "-//W3C//DTD SVG 20010904//EN"
 "http://www.w3.org/TR/2001/REC-SVG-20010904/DTD/svg10.dtd">
<svg version="1.0" xmlns="http://www.w3.org/2000/svg"
 width="700.000000pt" height="700.000000pt" viewBox="0 0 700.000000 700.000000"
 preserveAspectRatio="xMidYMid meet">
<metadata>
Created by potrace 1.14, written by Peter Selinger 2001-2017
</metadata>
<g transform="translate(0.000000,700.000000) scale(0.100000,-0.100000)"
fill="#000000" stroke="none">
<path d="M0 3500 l0 -3500 3500 0 3500 0 0 3500 0 3500 -3500 0 -3500 0 0
-3500z m4320 2296 c448 -90 694 -342 766 -784 22 -139 22 -560 0 -697 -37
-221 -104 -356 -246 -496 -54 -53 -95 -101 -92 -106 4 -6 39 -26 77 -46 296
-148 474 -420 537 -817 9 -58 13 -187 13 -410 0 -359 -9 -436 -67 -620 -132
-415 -450 -660 -933 -719 -60 -7 -462 -11 -1218 -11 -1265 0 -1182 -5 -1217
72 -19 42 -20 85 -20 2291 0 2405 -2 2286 48 2330 11 10 33 22 48 27 16 5 514
8 1124 6 988 -2 1103 -4 1180 -20z"/>
<path d="M2240 4655 l0 -846 998 4 c1119 3 1070 0 1230 78 157 76 251 208 292
409 41 202 36 592 -10 758 -71 257 -246 393 -554 432 -49 6 -447 10 -1018 10
l-938 0 0 -845z"/>
<path d="M2240 2452 l0 -1039 173 -6 c267 -11 1633 -8 1813 3 292 18 467 81
605 219 88 88 126 152 168 276 52 157 64 279 58 605 -5 302 -12 359 -62 503
-36 103 -81 175 -159 252 -118 118 -289 190 -511 215 -55 6 -476 10 -1087 10
l-998 0 0 -1038z"/>
</g>
</svg>
